<svg width="488" height="914" viewBox="0 0 488 914" fill="none" xmlns="http://www.w3.org/2000/svg">
<path d="M4.13611 2.49084L4.13611 911.508H483.863L483.863 2.49084H4.13611Z" fill="#B58456"/>
<path d="M483.861 907.444C479.351 907.405 474.838 907.361 470.325 907.337L470.387 911.508H483.861V907.444Z" fill="#774731"/>
<path d="M275.804 909.572C270.295 909.728 264.785 909.878 259.274 910.049C248.863 910.375 238.454 910.72 228.043 911.1C228.063 911.239 228.083 911.377 228.103 911.509H307.701L307.626 908.756C297.018 908.997 286.409 909.271 275.804 909.572Z" fill="#774731"/>
<path d="M442.639 907.253L442.773 911.508H462.168L462.233 907.312C455.7 907.285 449.166 907.256 442.639 907.253Z" fill="#774731"/>
<path d="M354.446 907.883L354.62 910.344H346.346L346.513 908.004C336.274 908.168 326.029 908.361 315.793 908.58L315.943 911.508H398.749L398.784 907.392C384.005 907.493 369.224 907.667 354.446 907.883Z" fill="#774731"/>
<path d="M406.946 907.337L406.988 911.508H434.601L434.741 907.253C425.473 907.258 416.212 907.285 406.946 907.337Z" fill="#774731"/>
<path d="M125.647 226.041C127.361 228.43 129.294 230.421 130.866 231.817C131.618 232.513 132.394 233.061 132.845 233.435C133.325 233.808 133.637 234.006 133.637 234.006C133.637 234.006 133.949 233.808 134.43 233.435C134.88 233.061 135.654 232.513 136.408 231.817C137.98 230.421 139.914 228.43 141.627 226.041C143.344 223.65 144.872 220.863 145.885 217.875C146.922 214.887 147.416 211.7 147.421 208.514C147.396 205.327 146.896 202.14 145.853 199.153C144.83 196.166 143.302 193.377 141.592 190.987C139.882 188.598 137.957 186.606 136.393 185.211C135.646 184.516 134.873 183.967 134.428 183.593C133.947 183.221 133.639 183.022 133.639 183.022C133.639 183.022 133.33 183.221 132.85 183.593C132.404 183.967 131.633 184.516 130.884 185.211C129.319 186.606 127.396 188.598 125.685 190.987C123.977 193.377 122.449 196.166 121.424 199.153C120.382 202.141 119.879 205.328 119.856 208.514C119.861 211.701 120.355 214.888 121.393 217.875C122.404 220.862 123.929 223.65 125.647 226.041Z" fill="#774731"/>
<path d="M98.8893 164.166C100.898 158.756 103.301 152.927 106.412 146.978C108 144.016 109.821 141.021 112.07 138.191C114.292 135.422 117.053 132.567 120.135 131.14C121.686 130.436 122.777 130.289 123.817 130.361C124.905 130.42 126.59 130.902 128.325 131.779C128.74 131.985 129.217 132.243 129.595 132.467C130.103 132.771 130.739 133.116 131.148 133.387C131.989 133.911 132.878 134.512 133.766 135.139C135.521 136.387 137.166 137.732 138.706 139.145C144.852 144.82 149.437 151.471 153.009 158.328C156.644 165.192 159.255 172.319 161.369 179.4C163.42 186.494 164.936 193.557 166.044 200.428C167.122 207.303 167.933 213.98 168.392 220.331C168.789 226.683 169.071 232.704 169.139 238.27C169.237 249.403 168.844 258.716 168.477 265.244C168.073 271.782 167.843 275.518 167.843 275.518C167.843 275.518 168.173 274.604 168.795 272.888C169.371 271.168 170.285 268.648 171.201 265.417C172.142 262.189 173.267 258.262 174.244 253.729C175.272 249.199 176.301 244.073 177.039 238.455C177.838 232.841 178.474 226.738 178.669 220.267C178.891 213.797 178.882 206.955 178.223 199.88C177.593 192.804 176.477 185.485 174.553 178.086C172.664 170.683 169.965 163.197 166.148 155.826C162.222 148.489 157.255 141.199 149.791 134.654C147.927 133.021 145.923 131.432 143.709 129.935C142.595 129.201 141.447 128.466 140.147 127.718C139.508 127.338 139.011 127.09 138.439 126.77C137.723 126.375 137.064 126.044 136.305 125.695C133.39 124.358 129.635 123.023 124.783 122.806C122.41 122.697 119.903 122.951 117.782 123.47C115.623 123.978 113.853 124.711 112.352 125.477C109.377 127.035 107.403 128.745 105.738 130.419C104.076 132.097 102.79 133.784 101.679 135.457C99.4632 138.801 97.8782 142.083 96.5318 145.279C93.8324 151.668 92.2957 157.749 91.1062 163.358C89.8816 168.962 89.2025 174.114 88.712 178.679C88.1831 183.239 88.0013 187.224 87.8678 190.5C87.6325 197.056 87.8878 200.803 87.8878 200.803C87.8878 200.803 88.8705 197.111 90.5923 190.654C92.3825 184.212 94.9785 175.016 98.8893 164.166Z" fill="#774731"/>
<path d="M196.362 341.579C198.464 327.603 201.075 307.607 202.827 283.556C203.733 271.533 204.481 258.497 204.763 244.698C205.081 230.901 205.163 216.338 204.472 201.272C203.777 186.21 202.811 170.628 200.535 154.821C198.286 139.017 195.286 122.96 190.221 107C187.613 99.03 184.485 91.0853 180.329 83.2693C176.058 75.4824 171.099 67.7107 162.791 60.6352C158.623 57.1396 153.334 53.7837 146.317 51.4979C145.488 51.1834 144.513 50.9824 143.599 50.7393C142.655 50.5263 141.776 50.2348 140.775 50.1002L137.831 49.627C136.865 49.4693 135.659 49.4231 134.581 49.3366C132.091 49.1307 130.886 49.2552 129.181 49.2421L128.437 49.2602L128.076 49.2874L127.357 49.3436L125.922 49.4632C124.965 49.5406 124.007 49.6159 123.079 49.7797C119.289 50.257 115.767 51.1944 112.465 52.2464C109.263 53.3848 106.244 54.6619 103.659 56.1268C98.3839 59.0145 94.2378 62.311 90.7159 65.687C83.7536 72.4772 79.007 79.5819 75.1714 86.6021C71.3875 93.6364 68.4761 100.603 66.0753 107.416C61.2369 121.038 58.4357 134.046 56.3936 146.054C54.3197 158.063 53.2202 169.098 52.5078 178.875C51.7604 188.653 51.5702 197.184 51.4985 204.203C51.4001 211.222 51.6319 216.739 51.7604 220.497C51.9456 224.254 52.0474 226.258 52.0474 226.258C52.0474 226.258 52.2059 224.257 52.5045 220.503C52.8182 216.752 53.4422 211.254 54.2213 204.264C55.9164 190.296 58.6075 170.333 64.21 146.634C67.0813 134.799 70.7718 122.028 76.0673 108.792C78.7434 102.181 81.9167 95.4671 85.8708 88.8116C89.9134 82.1993 94.5415 75.5347 100.921 69.6086C104.106 66.6637 107.757 63.9267 111.935 61.7263C113.995 60.5929 116.261 59.7047 118.556 58.9039C120.909 58.2076 123.306 57.5786 125.829 57.3063C126.443 57.1928 127.085 57.1597 127.724 57.1175L128.679 57.0491L129.156 57.012L129.289 57.0009C130.793 57.019 132.801 56.9527 133.494 57.1205C134.007 57.1918 134.435 57.1677 135.022 57.2813L136.757 57.5847C137.349 57.648 137.885 57.87 138.455 57.9966C139.013 58.1574 139.6 58.2559 140.129 58.4829C144.523 59.969 148.589 62.3753 151.978 65.2922C158.82 71.1479 163.528 78.3962 167.434 85.742C171.288 93.1411 174.243 100.823 176.7 108.579C181.754 124.087 184.907 139.908 187.276 155.515C189.533 171.135 191.304 186.562 192.341 201.521C193.364 216.48 194.102 230.96 194.472 244.7C194.787 258.44 194.944 271.44 194.917 283.441C194.789 307.447 194.187 327.466 193.628 341.482C193.01 355.502 192.658 363.515 192.658 363.515C192.658 363.515 193.019 361.522 193.693 357.785C194.325 354.049 195.36 348.568 196.362 341.579Z" fill="#774731"/>
<path d="M86.6831 221.415C86.7632 227.608 87.232 234.842 88.525 242.569C89.778 250.296 91.8852 258.524 95.4539 266.604C97.3042 270.631 99.5131 274.622 102.399 278.416C105.297 282.19 108.925 285.791 113.743 288.713C118.489 291.644 124.954 293.635 131.354 293.848C137.431 294.101 143.485 293.5 148.342 292.107C153.266 290.739 156.921 288.651 159.572 286.65C162.22 284.621 163.93 282.633 165.123 280.964C166.319 279.289 166.938 277.905 167.333 276.968C167.716 276.026 167.839 275.516 167.839 275.516C167.839 275.516 167.01 277.545 164.22 280.702C162.834 282.273 160.899 284.114 158.132 285.907C155.373 287.693 151.681 289.368 147.161 290.46C142.608 291.568 137.324 291.862 131.718 291.5C126.313 291.159 121.216 289.358 117.145 286.717C113.02 284.084 109.83 280.699 107.224 277.103C104.56 273.508 102.49 269.654 100.759 265.741C99.0209 261.826 97.5661 257.849 96.3865 253.899C95.2454 249.944 94.1959 246.037 93.3901 242.232C91.7534 234.625 90.6856 227.473 89.8881 221.333C89.1574 215.189 88.5467 210.057 88.3165 206.458C88.0412 202.856 87.8877 200.799 87.8877 200.799C87.8877 200.799 87.5273 202.853 87.2254 206.457C86.9818 210.062 86.5496 215.219 86.6831 221.415Z" fill="#774731"/>
<path d="M53.1653 288.199C53.8476 295.288 54.7085 302.763 56.0749 310.472C57.418 318.182 59.0414 326.139 61.1452 334.19C63.2424 342.242 65.7683 350.396 69.02 358.467C72.3435 366.526 76.4428 374.496 81.6649 382.1C86.9854 389.655 93.4705 396.959 102.728 402.777C107.337 405.659 112.774 408.123 118.899 409.566C124.933 411.053 131.653 411.498 137.591 411.099C143.846 410.737 149.605 409.589 154.641 407.879C159.666 406.167 163.899 403.964 167.447 401.625C174.546 396.909 178.956 391.717 182.284 387.079C185.543 382.403 187.655 378.178 189.15 374.673C190.653 371.166 191.454 368.361 191.974 366.453C192.48 364.541 192.653 363.514 192.653 363.514C192.653 363.514 191.581 367.606 188.112 374.497C186.367 377.935 183.958 382.065 180.412 386.572C176.785 391.033 172.084 395.959 165.178 400.347C161.706 402.512 157.639 404.505 152.942 406.003C148.264 407.5 142.863 408.448 137.386 408.68C131.617 408.957 125.998 408.45 120.637 407.05C115.313 405.658 110.388 403.497 106.172 400.777C97.6698 395.348 91.4684 388.291 86.4181 380.914C81.443 373.484 77.5456 365.632 74.3673 357.673C71.0405 349.733 68.4161 341.669 66.2122 333.696C64.0099 325.72 62.2714 317.82 60.8249 310.16C57.9736 294.833 55.9315 280.467 54.797 268.131C53.6374 255.794 52.8149 245.499 52.5179 238.286C52.1492 231.074 52.0441 226.949 52.0441 226.949C52.0441 226.949 51.6637 231.07 51.4518 238.29C51.305 245.509 51.0464 255.833 51.7088 268.212C52.0174 274.407 52.4896 281.11 53.1653 288.199Z" fill="#774731"/>
<path d="M197.845 19.3577C198.533 24.711 199.459 30.2302 200.433 35.8357C201.299 41.4463 202.609 47.1181 203.695 52.803C204.863 58.4819 206.299 64.1398 207.564 69.7172C209.039 75.2765 210.49 80.7484 211.893 86.0414C213.37 91.3275 215.023 96.4146 216.466 101.248C217.856 106.087 219.566 110.62 220.973 114.821C222.461 119.013 223.642 122.875 225.015 126.259C226.325 129.649 227.466 132.604 228.407 135.04C230.287 139.907 231.359 142.686 231.359 142.686C231.359 142.686 230.454 139.883 228.869 134.978C228.077 132.527 227.119 129.551 226.015 126.135C224.847 122.728 223.901 118.842 222.668 114.628C221.517 110.404 220.083 105.849 218.989 100.989C217.838 96.1342 216.498 91.0291 215.345 85.728C214.262 80.4219 213.146 74.9399 212.015 69.3685C211.084 63.783 209.998 58.1222 209.177 52.4443C208.438 46.7624 207.472 41.0936 206.95 35.4941C206.314 29.9006 205.734 24.3945 205.368 19.0622C204.884 13.733 204.674 8.57461 204.416 3.68847C204.399 3.28456 204.387 2.89267 204.372 2.49177H195.813C195.862 2.96802 195.902 3.43225 195.955 3.91152C196.507 8.82478 197.033 14.0073 197.845 19.3577Z" fill="#774731"/>
<path d="M163.142 21.5833C164.197 25.4888 165.318 29.5218 166.671 33.6494C167.318 35.7142 167.973 37.8081 168.64 39.9282C169.384 42.0382 170.14 44.1732 170.904 46.3315C171.671 48.4877 172.452 50.669 173.235 52.8714C174.104 55.0618 174.978 57.2743 175.859 59.5059C176.76 61.7324 177.592 63.9891 178.564 66.2418C179.555 68.4924 180.547 70.7602 181.55 73.041C182.569 75.3188 183.52 77.6237 184.615 79.9155C185.726 82.2054 186.842 84.5043 187.963 86.8152C190.199 91.4261 192.453 96.0731 194.719 100.738C195.753 103.076 196.787 105.418 197.827 107.764L200.681 114.858C207.977 133.838 212.786 153.153 215.991 171.331C219.197 189.516 220.797 206.573 221.525 221.201C222.996 250.469 221.141 269.984 221.141 269.984C221.141 269.984 223.357 250.485 222.427 221.189C221.967 206.546 220.686 189.46 217.811 171.223C214.931 152.991 210.477 133.593 203.499 114.476L200.758 107.326C199.754 104.954 198.753 102.582 197.753 100.218C195.569 95.5355 193.396 90.8734 191.242 86.2475C190.162 83.9396 189.086 81.6407 188.018 79.3549C186.967 77.064 186.058 74.7631 185.08 72.4894C184.121 70.2106 183.168 67.9468 182.217 65.7002C181.286 63.4505 180.495 61.1979 179.633 58.9744C178.792 56.7488 177.96 54.5414 177.13 52.355C176.388 50.1586 175.647 47.9833 174.916 45.8311C174.192 43.6769 173.477 41.5488 172.769 39.4448C172.143 37.3308 171.524 35.244 170.914 33.1852C169.633 29.0717 168.585 25.0527 167.604 21.1623C166.539 17.2789 165.764 13.505 164.951 9.88786C164.397 7.33879 163.922 4.89216 163.471 2.49481H158.608C159.113 5.01073 159.659 7.58397 160.286 10.2637C161.165 13.8918 162.011 17.6838 163.142 21.5833Z" fill="#774731"/>
<path d="M4.13603 292.911C4.25282 293.746 4.37125 294.564 4.49137 295.402C4.91181 298.36 5.33728 301.329 5.76105 304.31C6.33999 307.295 6.92058 310.287 7.49951 313.292C8.68407 319.303 9.87701 325.357 11.0783 331.448C12.5898 337.507 14.1147 343.604 15.643 349.729C16.4422 352.789 17.1145 355.87 18.0321 358.932C18.9664 361.995 19.9041 365.062 20.8467 368.137C28.1877 392.747 37.7159 417.535 49.1411 441.977C60.5863 466.42 73.7833 490.517 86.1812 514.271C98.5341 538.023 109.644 561.579 116.262 584.848C117.082 587.757 117.902 590.651 118.72 593.534C119.317 596.439 119.913 599.332 120.502 602.208C121.089 605.103 121.675 607.984 122.257 610.849C122.682 613.708 123.103 616.551 123.518 619.379C123.939 622.208 124.356 625.022 124.773 627.82C125.193 630.617 125.374 633.424 125.686 636.2C126.179 641.764 126.949 647.248 127.194 652.679C127.538 658.108 127.876 663.464 128.208 668.736C128.382 674.015 128.552 679.215 128.722 684.328C128.944 689.44 128.911 694.469 128.966 699.405C128.977 704.341 129.102 709.185 128.991 713.932C128.892 723.422 128.727 732.518 128.453 741.169C128.298 749.822 127.895 758.026 127.603 765.739C126.883 781.163 126.054 794.608 125.213 805.676C123.592 827.815 122.312 840.46 122.312 840.46C122.312 840.46 122.764 837.305 123.613 831.39C124.406 825.472 125.639 816.794 126.818 805.731C128.068 794.672 129.394 781.234 130.679 765.811C131.915 750.388 133.133 732.976 133.642 713.965C133.864 709.212 133.844 704.358 133.946 699.413C134.006 694.466 134.151 689.428 134.043 684.3C133.991 679.173 133.934 673.959 133.881 668.665C133.662 663.37 133.447 657.994 133.225 652.545C133.097 647.092 132.449 641.572 132.077 635.979C131.832 633.182 131.708 630.371 131.35 627.538C130.993 624.705 130.632 621.854 130.274 618.989C129.913 616.122 129.548 613.241 129.183 610.344C128.624 607.477 128.058 604.595 127.492 601.699C126.917 598.789 126.34 595.864 125.757 592.926C124.953 590.005 124.144 587.071 123.331 584.124C116.803 560.539 105.763 536.74 93.5522 512.894C81.2911 489.047 68.3343 464.979 57.091 440.634C45.544 416.342 35.899 391.743 28.4196 367.296C27.4619 364.241 26.5076 361.195 25.5533 358.153C24.6173 355.111 23.9316 352.049 23.1107 349.009C21.5458 342.921 19.9858 336.865 18.4375 330.844C17.2046 324.803 15.9733 318.801 14.7537 312.84C14.1564 309.859 13.5575 306.887 12.9585 303.927C12.5131 300.946 12.0709 297.978 11.6254 295.022C10.7362 289.109 9.85365 283.247 8.98441 277.439C8.22529 271.698 7.79982 265.9 7.16082 260.225C6.87052 257.38 6.58189 254.552 6.29159 251.738C6.01631 248.923 5.65594 246.128 5.60922 243.344C5.36564 237.775 5.12704 232.273 4.88846 226.846C4.78335 224.134 4.67327 221.438 4.56983 218.761C4.60987 216.086 4.65489 213.428 4.69493 210.791C4.78002 205.516 4.8651 200.322 4.94518 195.215C5.2238 190.11 5.68763 185.097 6.03966 180.17C6.40004 175.245 6.71871 170.41 7.48617 165.694C8.13851 160.972 8.77249 156.349 9.39647 151.829C10.1072 147.315 11.13 142.928 11.9024 138.635C12.3145 136.488 12.7233 134.37 13.122 132.282C13.5258 130.191 14.1398 128.149 14.6303 126.125C15.6597 122.08 16.664 118.152 17.6334 114.345C22.2098 99.1929 27.1149 86.0737 32.2035 75.4394C37.3655 64.8231 42.0671 56.5871 45.8026 51.0961C49.5248 45.6031 51.9557 42.7887 51.9557 42.7887C51.9557 42.7887 49.3897 45.5569 45.3905 50.9906C41.4164 56.4294 36.1793 64.5699 30.6669 75.162C25.1729 85.7612 19.7723 98.8543 14.6219 114.01C13.5058 117.819 12.3579 121.749 11.1733 125.795C10.6077 127.821 9.91703 129.867 9.43486 131.958C8.95436 134.051 8.4655 136.172 7.97165 138.321C7.01399 142.621 5.91121 147.024 5.09202 151.554C4.77336 153.533 4.45304 155.542 4.13104 157.56L4.13104 292.911H4.13603Z" fill="#774731"/>
<path d="M70.1612 73.1958C68.451 76.0674 66.5591 78.8968 64.6704 81.7252C62.7434 84.5445 60.7447 87.3468 58.6142 90.1119C57.6014 91.5095 56.4519 92.8659 55.3441 94.2354C54.2363 95.6059 53.1285 96.9764 51.9072 98.3087C49.5948 101.02 47.0321 103.642 44.4678 106.266L44.4295 106.306L44.4245 106.312C42.7194 108.467 41.4848 110.605 40.2885 112.796C39.0789 114.977 38.0929 117.188 37.0735 119.394C36.2126 121.623 35.1899 123.83 34.4741 126.075C33.6933 128.313 32.8892 130.546 32.2785 132.802C31.6195 135.051 30.9238 137.297 30.4283 139.562C29.9178 141.824 29.2721 144.075 28.8667 146.345L27.5703 153.147L26.5593 159.965C26.2123 162.236 25.9086 164.508 25.7234 166.788L25.0477 173.616C24.8342 175.893 24.7741 178.174 24.6273 180.453L24.2719 187.288C24.2235 191.848 24.1101 196.406 24.1184 200.964L24.4738 214.636L24.4221 200.964C24.5155 196.407 24.7291 191.853 24.8776 187.297L25.3831 180.47C25.5816 178.196 25.6917 175.918 25.9587 173.647L26.7829 166.832C27.0215 164.559 27.3735 162.293 27.7739 160.029L28.9284 153.236L30.3766 146.465C30.8254 144.206 31.5211 141.966 32.0783 139.719C32.6239 137.467 33.368 135.238 34.0721 133.004C34.7277 130.764 35.5753 128.55 36.4011 126.333C37.1603 124.107 38.2247 121.928 39.1256 119.725C40.1851 117.55 41.2111 115.366 42.4491 113.23C43.6537 111.107 44.9767 108.946 46.5683 107C49.2044 104.379 51.8405 101.757 54.2213 99.0522C55.4826 97.7139 56.6304 96.3404 57.775 94.9669C58.9228 93.5934 60.1107 92.23 61.1635 90.8303C63.3741 88.0582 65.4429 85.2488 67.445 82.4225C69.407 79.588 71.3791 76.7506 73.1576 73.873C80.4551 62.3976 86.5164 50.656 91.8153 38.8039C97.1358 26.9518 101.624 14.972 105.578 2.93301C105.625 2.78631 105.671 2.63861 105.715 2.49091H100.886C97.2125 14.4717 93.0065 26.3971 87.9746 38.197C82.9477 50.025 77.1667 61.7455 70.1612 73.1958Z" fill="#774731"/>
<path d="M10.2179 537.749C8.351 532.469 6.19209 527.199 4.13495 521.963L4.13495 542.54C6.08698 548.114 7.90221 553.69 9.50721 559.254C13.4613 572.926 16.4361 586.535 18.7285 599.964C27.6712 653.724 26.9921 704.366 23.7988 747.589C20.4753 790.84 15.078 826.814 10.8653 851.96C8.75476 864.536 7.12139 874.42 6.14036 881.169C5.6582 884.543 5.35453 887.135 5.28279 888.885C5.161 890.638 5.47969 891.543 5.59648 891.519C5.47969 891.541 5.19606 890.635 5.3946 888.889C5.54476 887.142 5.95685 884.559 6.58751 881.196C7.94225 874.474 9.93098 864.615 12.462 852.067C14.9529 839.513 17.8676 824.26 20.7372 806.729C23.6169 789.2 26.4415 769.39 28.4436 747.732C30.4857 726.077 31.8872 702.579 31.8421 677.706C31.7737 652.837 30.3472 626.576 25.8642 599.532C23.6436 586.012 20.7372 572.297 16.8398 558.496C14.8928 551.595 12.7089 544.672 10.2179 537.749Z" fill="#774731"/>
<path d="M4.13495 58.2429C4.29345 57.7063 4.45363 57.1517 4.61213 56.6192C9.8142 39.3102 15.0863 24.2982 19.7328 11.9778C21.0108 8.60587 22.2254 5.45293 23.3833 2.4909H22.0619C20.8123 5.38561 19.516 8.46315 18.1679 11.7547C13.8667 22.2283 9.04339 34.6763 4.13663 48.8323L4.13663 58.2429H4.13495Z" fill="#774731"/>
<path d="M174.937 730.688C173.173 695.136 171.96 657.196 172.538 619.265C172.861 600.301 173.594 581.338 175.302 562.706C176.16 553.392 177.256 544.16 178.759 535.067C180.257 525.976 182.196 517.02 185.046 508.332C186.53 504.001 188.13 499.709 190.443 495.618C192.695 491.454 194.958 487.356 196.895 483.208C200.83 474.95 204.045 466.782 206.778 458.781C212.135 442.764 215.576 427.451 217.961 413.283C222.678 384.929 223.339 361.168 223.354 344.567C223.275 327.956 222.363 318.478 222.363 318.478C222.363 318.478 223.147 327.961 222.993 344.567C222.75 361.16 221.76 384.909 216.658 413.2C214.082 427.337 210.437 442.605 204.876 458.543C202.043 466.501 198.723 474.631 194.701 482.814C192.732 486.901 190.403 491.005 188.104 495.139C185.686 499.315 184.011 503.643 182.451 508.012C179.455 516.767 177.389 525.759 175.759 534.879C174.126 544 172.901 553.252 171.915 562.586C169.95 581.255 168.961 600.243 168.377 619.23C167.282 657.208 167.986 695.187 169.266 730.776C170.572 766.367 172.521 799.572 174.478 828.025C177.129 866.48 179.77 896.239 181.203 911.508H189.338C187.708 896.357 184.647 866.499 181.454 827.834C179.121 799.412 176.722 766.242 174.937 730.688Z" fill="#774731"/>
<path d="M198.445 402.72C194.604 411.381 189.774 421.449 182.832 431.78C179.356 436.936 175.24 442.128 170.307 447.085C165.315 451.989 159.222 456.654 151.573 459.896C147.724 461.39 143.341 462.602 139.211 462.977C138.177 463.134 136.789 463.073 135.601 463.131L133.746 463.176L132.291 463.071C130.042 462.984 127.876 462.599 125.737 462.199C117.244 460.3 110.23 456.335 104.691 452.046C99.1481 447.709 94.6117 443.066 90.8645 438.499C87.1139 433.926 83.9807 429.464 81.3112 425.288C76.0324 416.921 72.3653 409.754 70.0562 404.701C67.7204 399.649 66.5793 396.725 66.5793 396.725C66.5793 396.725 67.2466 399.702 69.0218 404.852C70.8737 409.986 73.5932 417.341 78.3448 425.927C80.7173 430.219 83.5469 434.829 87.1607 439.566C90.751 444.302 95.1055 449.193 100.85 453.822C103.76 456.113 106.931 458.39 110.779 460.358C114.582 462.327 118.895 464.142 123.93 465.213C126.448 465.705 129.032 466.16 131.729 466.286L132.731 466.361L133.233 466.398L133.484 466.416L133.953 466.414L135.803 466.376C137.072 466.319 138.204 466.394 139.592 466.229C145.353 465.76 150.134 464.348 154.671 462.642C163.341 458.922 169.685 453.882 174.865 448.742C180.015 443.562 183.933 438.144 187.348 432.854C190.76 427.558 193.429 422.32 195.753 417.33C198.082 412.34 199.954 407.575 201.526 403.161C204.668 394.334 206.444 386.888 207.662 381.687C208.814 376.475 209.199 373.479 209.199 373.479C209.199 373.479 208.33 376.437 206.603 381.58C204.925 386.726 202.163 394.034 198.445 402.72Z" fill="#774731"/>
<path d="M75.2381 273.438C72.9757 264.128 71.2039 256.349 70.1561 250.89C69.085 245.429 68.4744 242.31 68.4744 242.31C68.4744 242.31 68.5761 245.453 69.0933 250.947C69.6723 256.436 70.4581 264.288 72.1098 273.676C73.7315 283.065 76.0623 294.001 79.661 305.63C81.5079 311.437 83.5367 317.436 86.2311 323.456C88.9106 329.474 92.0288 335.55 96.1965 341.448C98.3037 344.389 100.746 347.272 103.683 350.009C106.642 352.721 110.164 355.351 114.989 357.258C117.424 358.18 120.188 358.898 123.196 359.102C124.506 359.171 125.587 359.355 127.215 359.261C128.722 359.21 130.272 359.204 131.605 358.94C137.207 358.181 141.817 356.137 145.342 353.875C148.899 351.589 151.664 349.051 153.88 346.465C156.147 343.892 157.996 341.288 159.564 338.717C162.732 333.582 164.933 328.597 166.635 323.97C170.055 314.713 171.501 306.872 172.492 301.403C173.393 295.923 173.56 292.779 173.56 292.779C173.56 292.779 172.904 295.899 171.43 301.318C169.975 306.737 167.537 314.454 163.563 323.515C161.541 328.036 159.027 332.881 155.728 337.816C154.08 340.282 152.171 342.756 149.899 345.148C147.663 347.547 145.052 349.882 141.842 351.85C138.661 353.817 134.808 355.393 130.519 355.919C129.436 356.132 128.437 356.078 127.419 356.128C126.513 356.241 125.09 356.033 123.874 355.95C121.82 355.812 119.758 355.287 117.869 354.56C114.08 353.054 110.907 350.739 108.227 348.23C105.548 345.702 103.259 342.96 101.253 340.13C97.1892 334.478 94.0609 328.532 91.3648 322.621C88.6954 316.701 86.3846 310.806 84.4109 305.064C80.4618 293.577 77.5555 282.741 75.2381 273.438Z" fill="#774731"/>
<path d="M47.7962 15.4883C46.8219 17.5039 45.8776 19.4511 44.9833 21.2999C44.0006 23.1315 43.0713 24.8638 42.2138 26.4633C41.3278 28.0569 40.3985 29.4927 39.6377 30.7808C38.8953 32.0729 38.1061 33.1661 37.4788 34.0713C36.2225 35.8849 35.5018 36.9199 35.5018 36.9199C35.5018 36.9199 36.3393 35.9171 37.8025 34.1598C38.5332 33.2806 39.4509 32.2176 40.3401 30.9566C41.2494 29.7017 42.3489 28.298 43.4217 26.7386C44.4644 25.1702 45.5973 23.4721 46.7969 21.6766C47.903 19.86 49.0759 17.945 50.2888 15.9626C52.6062 11.9767 54.9803 7.70048 57.1693 3.39007C57.3244 3.08964 57.4696 2.78922 57.6214 2.48981H53.2736C53.2402 2.5732 53.2085 2.65658 53.1752 2.73897C51.4984 7.10164 49.6398 11.4371 47.7962 15.4883Z" fill="#774731"/>
<path d="M129.533 10.7024C129.318 11.8016 129.099 12.8918 128.889 13.9669C128.602 15.037 128.318 16.094 128.04 17.1319C127.554 19.2218 126.807 21.2052 126.116 23.0921C125.525 24.9972 124.584 26.7294 123.815 28.3511C123.125 29.9918 122.112 31.4096 121.278 32.6856C120.861 33.3236 120.47 33.9205 120.105 34.4731C119.721 35.0187 119.224 35.4758 118.852 35.9149C117.275 37.6461 116.378 38.6348 116.378 38.6348C116.378 38.6348 117.352 37.6702 119.059 35.9822C119.466 35.5542 120.003 35.105 120.432 34.5685C120.836 34.0239 121.278 33.4361 121.747 32.8072C122.681 31.5482 123.815 30.1416 124.631 28.5139C125.529 26.9053 126.617 25.176 127.357 23.28C128.198 21.4001 129.108 19.4167 129.755 17.3278C130.115 16.2879 130.484 15.2299 130.854 14.1588C131.15 13.0807 131.452 11.9906 131.755 10.8893C132.408 8.69194 132.885 6.44531 133.349 4.19565C133.485 3.62896 133.576 3.05826 133.684 2.48956H130.789C130.729 3.003 130.687 3.51641 130.609 4.02884C130.317 6.27046 130.013 8.51105 129.533 10.7024Z" fill="#774731"/>
<path d="M184.792 471.265C181.872 475.395 177.579 481.27 173.004 488.468C168.375 495.651 163.466 504.168 159.015 513.438C156.788 518.071 154.617 522.88 152.62 527.797C150.628 532.707 148.691 537.73 146.859 542.726L146.52 543.665L146.35 544.135L146.172 544.479C145.986 544.938 145.634 545.338 145.214 545.69C144.373 546.395 143.085 546.884 141.609 547.077C140.14 547.273 138.524 547.159 137.202 546.767C136.54 546.57 135.964 546.299 135.459 545.991C135.214 545.833 135.035 545.639 134.8 545.472C134.615 545.302 134.541 545.145 134.366 544.991C134.204 544.839 134.082 544.425 133.942 544.156L133.837 543.928L133.804 543.835L133.654 543.369L133.053 541.516C132.641 540.284 132.232 539.059 131.823 537.84C130.931 535.417 130.046 533.021 129.176 530.664C125.493 521.269 121.281 512.623 117.222 505.309C113.212 497.985 109.238 492.016 106.419 487.858C103.552 483.708 101.669 481.403 101.669 481.403C101.669 481.403 103.104 483.82 105.416 488.081C107.788 492.33 110.808 498.47 114.205 505.86C115.915 509.554 117.609 513.58 119.369 517.84C121.124 522.101 122.752 526.624 124.451 531.297C125.223 533.642 126.007 536.029 126.803 538.443C127.162 539.654 127.522 540.873 127.881 542.097L128.443 543.937L128.588 544.398L128.622 544.514L128.72 544.765L128.822 544.993C128.989 545.324 129.01 545.546 129.302 545.964C131.353 549.36 137.427 550.965 142.733 550.267C145.397 549.943 147.957 549.01 149.613 547.64C150.443 546.967 151.082 546.2 151.434 545.422L151.716 544.847L151.892 544.379L152.241 543.441C154.031 538.422 155.872 533.449 157.8 528.549C159.781 523.663 161.619 518.838 163.698 514.219C167.744 504.961 172.05 496.405 175.988 489.105C179.965 481.815 183.313 475.729 185.791 471.5C188.192 467.251 189.567 464.822 189.567 464.822C189.567 464.822 189.126 465.407 188.305 466.502C187.499 467.603 186.243 469.198 184.792 471.265Z" fill="#774731"/>
<path d="M64.9459 777.414C65.4431 763.932 65.7834 750 65.9002 735.841C66.062 721.684 65.9202 707.3 65.6499 692.918C65.418 685.728 65.1894 678.538 64.9575 671.376C64.5771 664.216 64.3402 657.082 63.8514 650.009C62.9488 635.861 61.8627 621.941 60.3528 608.487C59.637 601.759 58.8945 595.145 57.9519 588.68C57.5114 585.447 57.076 582.248 56.6472 579.088C56.1284 575.932 55.6211 572.815 55.1189 569.739C54.6134 566.665 54.1113 563.633 53.6208 560.645C53.0335 557.663 52.4562 554.726 51.8856 551.841C51.315 548.953 50.7577 546.116 50.2072 543.329C49.5598 540.551 48.9258 537.824 48.3035 535.154C47.0706 529.812 45.886 524.693 44.4579 519.852C43.0414 515.012 41.9953 510.389 40.4754 506.101C39.0673 501.803 37.7509 497.78 36.5346 494.061C35.1148 490.368 33.8084 486.973 32.6322 483.91C30.4216 477.76 27.9357 473.041 26.5292 469.781C25.0443 466.533 24.2535 464.799 24.2535 464.799C24.2535 464.799 25.0126 466.538 26.4408 469.795C27.7872 473.065 30.188 477.795 32.2868 483.957C33.4114 487.028 34.651 490.426 36.0057 494.125C37.1536 497.85 38.3999 501.878 39.728 506.182C41.1628 510.475 42.1288 515.102 43.4551 519.947C44.7965 524.791 45.8844 529.913 47.0206 535.257C47.5945 537.928 48.1801 540.657 48.7757 543.435C49.2729 546.221 49.7834 549.061 50.299 551.948C50.8178 554.836 51.3417 557.771 51.8756 560.753C52.3127 563.74 52.7565 566.772 53.2053 569.847C53.6558 572.921 54.1079 576.037 54.5684 579.192C54.9404 582.351 55.3158 585.549 55.6962 588.782C56.5204 595.243 57.1478 601.855 57.7417 608.58C59.003 622.026 59.8406 635.936 60.4879 650.07C60.8516 657.137 60.96 664.265 61.212 671.418C61.3137 678.572 61.4139 685.755 61.5156 692.937C61.529 707.304 61.4105 721.668 60.9934 735.807C60.6264 749.946 60.0324 763.859 59.2916 777.319C57.8568 804.239 55.8097 829.35 53.7125 850.859C51.0881 878.02 48.372 899.414 46.7252 911.506H54.8186C56.2535 899.302 58.5626 878.001 60.6814 851.081C62.3915 829.532 63.9882 804.376 64.9459 777.414Z" fill="#774731"/>
<path d="M84.7032 911.508H92.538L101.671 713.856L84.7032 911.508Z" fill="#774731"/>
<path d="M143.22 911.508H148.016L145.618 837.279L143.22 911.508Z" fill="#774731"/>
<path d="M94.7685 646.968C94.7985 644.384 94.5883 641.474 94.3881 638.299C94.1579 635.125 94.0578 631.678 93.5839 628.048C93.1718 624.413 92.8031 620.577 92.2325 616.619C91.5902 612.665 91.0363 608.569 90.2721 604.423C89.4262 600.28 88.5687 596.071 87.7128 591.864C86.6584 587.672 85.7324 583.469 84.5879 579.351C83.4901 575.23 82.2922 571.186 81.0475 567.283C79.883 563.37 78.5199 559.614 77.2553 556.052C76.0106 552.488 74.6475 549.139 73.4062 546.049C70.9003 539.871 68.3894 534.787 66.6793 531.227C64.8891 527.677 63.7045 525.681 63.7045 525.681C63.7045 525.681 64.4119 527.754 65.6449 531.383C66.8945 535.007 68.4344 540.213 70.3264 546.445C72.1299 552.689 74.2638 559.962 76.2776 567.783C77.377 571.684 78.2613 575.738 79.3341 579.841C80.4119 583.944 81.2661 588.133 82.2572 592.31C83.1714 596.493 84.084 600.677 84.9866 604.797C85.8058 608.921 86.62 612.98 87.4025 616.909C88.1232 620.845 88.819 624.648 89.4813 628.255C90.192 631.86 90.6525 635.28 91.2315 638.431C91.717 641.587 92.356 644.472 92.7197 647.039C93.1234 649.606 93.4721 651.843 93.7624 653.686C94.3614 657.373 94.7768 659.48 94.7768 659.48C94.7768 659.48 94.8502 657.362 94.8336 653.655C94.8135 651.802 94.7935 649.551 94.7685 646.968Z" fill="#774731"/>
<path d="M466.278 642.279L462.233 907.312L462.168 911.508H470.387L470.325 907.337L466.278 642.279Z" fill="#774731"/>
<path d="M438.711 782.767L434.741 907.253L434.601 911.508H442.773L442.64 907.253L438.711 782.767Z" fill="#774731"/>
<path d="M402.865 469.917L398.782 907.392L398.747 911.508H406.988L406.946 907.337L402.865 469.917Z" fill="#774731"/>
<path d="M298.101 560.418L307.628 908.755L307.703 911.508H315.942L315.792 908.58L298.101 560.418Z" fill="#774731"/>
<path d="M346.511 908.004L346.345 910.344H354.618L354.446 907.883L350.481 851.044L346.511 908.004Z" fill="#774731"/>
<path d="M435.706 578.201C435.949 596.718 436.178 614.226 436.39 630.386C436.55 646.546 436.885 661.36 437.179 674.491C437.463 687.621 437.703 699.067 437.906 708.494C438.415 727.349 438.711 738.122 438.711 738.122C438.711 738.122 439.001 727.349 439.511 708.494C439.713 699.067 439.959 687.621 440.239 674.491C440.533 661.359 440.864 646.546 441.028 630.386C441.243 614.226 441.469 596.718 441.715 578.201C441.944 559.684 442.276 540.157 442.289 519.956C442.465 479.554 442.651 436.459 442.84 393.366C442.658 350.27 442.471 307.176 442.296 266.775C442.279 246.575 441.971 227.046 441.725 208.53C441.482 190.011 441.25 172.505 441.035 156.345C440.875 140.184 440.546 125.37 440.252 112.24C439.962 99.1095 439.718 87.6633 439.516 78.2356C439.001 59.3813 438.712 48.6083 438.712 48.6083C438.712 48.6083 438.415 59.3823 437.908 78.2356C437.703 87.6633 437.456 99.1085 437.172 112.24C436.872 125.37 436.547 140.185 436.383 156.345C436.171 172.505 435.939 190.012 435.692 208.53C435.451 227.046 435.139 246.574 435.122 266.775C434.948 307.176 434.767 350.271 434.581 393.366C434.767 436.46 434.953 479.554 435.132 519.956C435.139 540.157 435.471 559.684 435.706 578.201Z" fill="#774731"/>
<path d="M366.149 758.848C366.25 763.474 366.504 767.948 366.706 772.188C366.884 776.429 367.161 780.439 367.417 784.141C368.401 798.947 369.782 808.819 369.782 808.819C369.782 808.819 371.164 798.947 372.148 784.141C372.402 780.438 372.682 776.429 372.859 772.188C373.061 767.947 373.314 763.474 373.416 758.848C373.523 754.221 373.758 749.439 373.775 744.581C373.823 739.723 373.867 734.787 373.915 729.852C373.87 724.916 373.823 719.98 373.778 715.122C373.775 710.264 373.531 705.483 373.426 700.856C373.136 691.602 372.694 682.966 372.155 675.561C371.174 660.755 369.782 650.884 369.782 650.884C369.782 650.884 368.391 660.755 367.41 675.561C366.873 682.966 366.432 691.601 366.139 700.856C366.033 705.483 365.793 710.264 365.787 715.122C365.745 719.98 365.695 724.917 365.65 729.852C365.698 734.787 365.745 739.722 365.793 744.581C365.81 749.439 366.043 754.221 366.149 758.848Z" fill="#774731"/>
<path d="M333.068 588.07C333.149 601.069 333.458 613.632 333.693 625.547C333.935 637.461 334.165 648.726 334.381 659.124C334.544 669.522 334.873 679.053 335.166 687.502C335.447 695.95 335.694 703.315 335.897 709.381C336.409 721.511 336.698 728.444 336.698 728.444C336.698 728.444 336.988 721.512 337.497 709.381C337.703 703.315 337.948 695.95 338.23 687.502C338.52 679.054 338.855 669.522 339.019 659.124C339.227 648.726 339.459 637.461 339.703 625.547C339.938 613.632 340.247 601.069 340.332 588.07C340.445 575.073 340.567 561.642 340.687 547.996C340.736 534.348 340.786 520.484 340.834 506.621C340.786 492.756 340.736 478.892 340.694 465.245C340.57 451.598 340.452 438.166 340.342 425.169C340.095 399.174 339.391 374.912 339.025 354.115C338.862 343.717 338.537 334.187 338.24 325.737C337.956 317.289 337.709 309.925 337.504 303.859C336.992 291.729 336.7 284.795 336.7 284.795C336.7 284.795 336.409 291.728 335.896 303.859C335.694 309.925 335.445 317.289 335.16 325.737C334.866 334.187 334.538 343.718 334.374 354.115C334.012 374.912 333.305 399.174 333.058 425.169C332.944 438.166 332.826 451.598 332.706 465.245C332.661 478.892 332.614 492.756 332.569 506.621C332.617 520.484 332.667 534.349 332.709 547.996C332.832 561.642 332.949 575.074 333.068 588.07Z" fill="#774731"/>
<path d="M272.97 2.49075H265.294L287.073 531.328L272.97 2.49075Z" fill="#774731"/>
<path d="M366.148 358.812C366.34 367.178 366.527 375.266 366.706 382.937C366.959 390.606 367.198 397.857 367.416 404.551C367.882 417.938 368.626 429.093 368.983 436.901C369.156 440.807 369.43 443.874 369.56 445.965C369.707 448.056 369.782 449.173 369.782 449.173C369.782 449.173 369.861 448.056 370.004 445.965C370.134 443.874 370.408 440.806 370.585 436.901C370.94 429.093 371.682 417.938 372.15 404.551C372.368 397.857 372.605 390.606 372.86 382.937C373.039 375.266 373.226 367.178 373.418 358.812C373.531 350.445 373.653 341.8 373.776 333.014C373.825 324.229 373.868 315.304 373.917 306.38C373.871 297.455 373.825 288.531 373.78 279.745C373.776 270.961 373.533 262.314 373.428 253.948C373.137 237.215 372.695 221.597 372.156 208.21C371.698 194.823 370.943 183.667 370.59 175.859C370.416 171.955 370.138 168.888 370.012 166.795C369.862 164.703 369.784 163.588 369.784 163.588C369.784 163.588 369.709 164.703 369.562 166.795C369.432 168.887 369.155 171.955 368.978 175.859C368.623 183.667 367.87 194.823 367.411 208.21C366.874 221.597 366.434 237.215 366.14 253.948C366.035 262.314 365.795 270.961 365.788 279.745C365.746 288.531 365.696 297.455 365.651 306.38C365.7 315.304 365.746 324.229 365.795 333.014C365.913 341.801 366.033 350.445 366.148 358.812Z" fill="#774731"/>
<path d="M399.226 58.027C399.12 66.5112 398.874 75.2796 398.874 84.1888C398.829 93.098 398.779 102.149 398.731 111.2C398.779 120.253 398.829 129.304 398.878 138.213C398.998 147.122 399.12 155.89 399.233 164.376C399.428 172.861 399.615 181.063 399.79 188.842C400.041 196.619 400.286 203.974 400.504 210.761C400.966 224.339 401.714 235.651 402.069 243.571C402.243 247.531 402.52 250.641 402.647 252.762C402.793 254.884 402.868 256.015 402.868 256.015C402.868 256.015 402.947 254.884 403.094 252.762C403.217 250.641 403.497 247.531 403.671 243.571C404.023 235.651 404.765 224.338 405.236 210.761C405.454 203.973 405.691 196.619 405.95 188.842C406.124 181.064 406.312 172.862 406.504 164.376C406.621 155.89 406.743 147.122 406.863 138.213C406.908 129.304 406.954 120.253 407.003 111.2C406.961 102.149 406.911 93.098 406.863 84.1888C406.863 75.2796 406.621 66.5112 406.514 58.027C406.224 41.0556 405.778 25.2176 405.246 11.6403C405.136 8.45719 405.011 5.41075 404.881 2.49092H400.863C400.73 5.41075 400.603 8.45719 400.494 11.6403C399.955 25.2176 399.513 41.0556 399.226 58.027Z" fill="#774731"/>
<path d="M462.647 32.4596C462.537 38.5776 462.305 44.8995 462.288 51.3219C462.243 57.7464 462.193 64.2723 462.145 70.7982C462.193 77.3231 462.237 83.849 462.285 90.2735C462.285 96.6989 462.532 103.02 462.637 109.137C462.924 121.373 463.369 132.793 463.902 142.581C464.886 162.159 466.277 175.21 466.277 175.21C466.277 175.21 467.672 162.16 468.653 142.581C469.187 132.793 469.631 121.373 469.921 109.137C470.026 103.019 470.27 96.6979 470.27 90.2735C470.318 83.849 470.365 77.3231 470.414 70.7982C470.365 64.2723 470.315 57.7464 470.267 51.3219C470.25 44.8985 470.023 38.5766 469.911 32.4596C469.809 26.3406 469.556 20.4266 469.354 14.8191C469.221 10.5117 469.022 6.38916 468.823 2.48969H463.733C463.531 6.38916 463.339 10.5107 463.206 14.8191C463.002 20.4266 462.742 26.3406 462.647 32.4596Z" fill="#774731"/>
<path d="M340.056 2.49042H333.341L336.696 186.833L340.056 2.49042Z" fill="#774731"/>
<path d="M297.412 21.0163C297.676 24.4235 297.936 27.8306 298.198 31.1845C298.413 34.5394 298.865 37.835 299.172 41.0292C299.863 47.4134 300.684 53.3676 301.541 58.4677C303.171 68.6711 304.988 75.4553 304.988 75.4553C304.988 75.4553 305.949 68.6068 306.285 58.3582C306.496 53.2329 306.565 47.2576 306.448 40.8613C306.35 37.6632 306.386 34.3555 306.178 31.0016C306.011 27.6447 305.842 24.2356 305.676 20.8254C305.409 17.4183 305.145 14.0111 304.886 10.6572C304.698 7.88007 304.371 5.15922 304.086 2.48957H296.676C296.735 5.2195 296.751 8.00467 296.918 10.8401C297.08 14.197 297.247 17.6051 297.412 21.0163Z" fill="#774731"/>
<path d="M372.75 2.49091H366.816L369.781 111.2L372.75 2.49091Z" fill="#774731"/>
<path d="M308.25 212.946C308.348 216.272 308.605 219.485 308.807 222.534C308.982 225.581 309.259 228.463 309.521 231.124C310.499 241.764 311.88 248.857 311.88 248.857C311.88 248.857 313.269 241.763 314.246 231.124C314.503 228.464 314.783 225.581 314.957 222.534C315.159 219.485 315.416 216.272 315.518 212.946C315.624 209.622 315.856 206.185 315.873 202.694C315.921 199.202 315.971 195.657 316.016 192.11C315.971 188.564 315.921 185.016 315.876 181.526C315.876 178.033 315.629 174.597 315.524 171.273C315.237 164.623 314.793 158.415 314.26 153.096C313.275 142.456 311.88 135.362 311.88 135.362C311.88 135.362 310.492 142.457 309.508 153.096C308.974 158.415 308.53 164.623 308.243 171.273C308.133 174.598 307.891 178.034 307.891 181.526C307.843 185.017 307.796 188.564 307.748 192.11C307.796 195.657 307.846 199.203 307.895 202.694C307.911 206.184 308.143 209.622 308.25 212.946Z" fill="#774731"/>
<path d="M399.233 399.277C399.335 402.617 399.588 405.847 399.79 408.91C399.969 411.973 400.242 414.868 400.504 417.541C401.485 428.231 402.867 435.358 402.867 435.358C402.867 435.358 404.252 428.23 405.233 417.541C405.486 414.868 405.767 411.973 405.947 408.91C406.149 405.847 406.402 402.617 406.501 399.277C406.607 395.937 406.839 392.484 406.859 388.976C406.904 385.468 406.951 381.905 406.999 378.341C406.958 374.777 406.908 371.214 406.859 367.706C406.859 364.199 406.617 360.747 406.511 357.405C406.22 350.723 405.775 344.488 405.243 339.141C404.258 328.451 402.867 321.325 402.867 321.325C402.867 321.325 401.479 328.452 400.491 339.141C399.957 344.487 399.513 350.722 399.226 357.405C399.12 360.747 398.874 364.199 398.874 367.706C398.829 371.214 398.779 374.777 398.731 378.341C398.779 381.905 398.829 385.468 398.878 388.976C398.894 392.484 399.128 395.937 399.233 399.277Z" fill="#774731"/>
<path d="M366.149 554.244C366.25 557.466 366.504 560.582 366.706 563.535C366.884 566.488 367.161 569.281 367.417 571.86C368.401 582.17 369.782 589.045 369.782 589.045C369.782 589.045 371.164 582.17 372.148 571.86C372.402 569.281 372.682 566.489 372.859 563.535C373.061 560.582 373.314 557.466 373.416 554.244C373.523 551.022 373.758 547.692 373.775 544.308C373.823 540.925 373.867 537.489 373.915 534.053C373.87 530.615 373.823 527.178 373.778 523.796C373.775 520.412 373.531 517.082 373.426 513.86C373.136 507.415 372.694 501.401 372.155 496.245C371.174 485.935 369.782 479.06 369.782 479.06C369.782 479.06 368.391 485.935 367.41 496.245C366.873 501.401 366.432 507.415 366.139 513.86C366.033 517.082 365.793 520.412 365.787 523.796C365.745 527.179 365.695 530.615 365.65 534.053C365.698 537.489 365.745 540.925 365.793 544.308C365.81 547.692 366.043 551.022 366.149 554.244Z" fill="#774731"/>
<path d="M308.25 424.478C308.348 427.475 308.605 430.373 308.807 433.121C308.982 435.868 309.259 438.468 309.521 440.866C310.499 450.459 311.88 456.853 311.88 456.853C311.88 456.853 313.269 450.459 314.246 440.866C314.503 438.468 314.783 435.868 314.957 433.121C315.159 430.374 315.416 427.476 315.518 424.478C315.624 421.48 315.856 418.384 315.873 415.235C315.921 412.087 315.971 408.891 316.016 405.692C315.971 402.494 315.921 399.298 315.876 396.15C315.876 393.002 315.629 389.906 315.524 386.908C315.237 380.912 314.793 375.316 314.26 370.519C313.275 360.926 311.88 354.532 311.88 354.532C311.88 354.532 310.492 360.926 309.508 370.519C308.974 375.315 308.53 380.912 308.243 386.908C308.133 389.906 307.891 393.002 307.891 396.15C307.843 399.298 307.796 402.494 307.748 405.692C307.796 408.891 307.846 412.087 307.895 415.235C307.911 418.383 308.143 421.479 308.25 424.478Z" fill="#774731"/>
<path d="M437.87 18.879C438.329 20.1782 438.691 20.9207 438.691 20.9207C438.691 20.9207 439.046 20.1782 439.505 18.879C439.967 17.5809 440.564 15.7251 441.05 13.4995C441.819 10.3878 442.363 6.54562 442.63 2.49042H434.743C435.01 6.54562 435.554 10.3878 436.323 13.4995C436.81 15.7251 437.408 17.5809 437.87 18.879Z" fill="#774731"/>
<path d="M462.647 480.161C462.839 488.534 463.026 496.628 463.204 504.304C463.454 511.979 463.693 519.235 463.915 525.934C464.38 539.33 465.124 550.493 465.476 558.308C465.655 562.216 465.929 565.286 466.054 567.378C466.201 569.472 466.279 570.589 466.279 570.589C466.279 570.589 466.361 569.472 466.504 567.378C466.631 565.285 466.905 562.216 467.078 558.308C467.437 550.493 468.179 539.33 468.643 525.934C468.868 519.235 469.105 511.979 469.357 504.304C469.533 496.628 469.723 488.534 469.915 480.161C470.031 471.789 470.15 463.138 470.27 454.345C470.318 445.554 470.368 436.622 470.417 427.692C470.368 418.761 470.322 409.83 470.273 401.038C470.273 392.247 470.03 383.596 469.925 375.223C469.634 358.477 469.192 342.847 468.657 329.45C468.198 316.054 467.44 304.892 467.09 297.076C466.911 293.168 466.638 290.099 466.506 288.006C466.362 285.912 466.281 284.796 466.281 284.796C466.281 284.796 466.202 285.912 466.055 288.006C465.929 290.099 465.652 293.169 465.475 297.076C465.123 304.891 464.367 316.054 463.905 329.45C463.374 342.847 462.927 358.477 462.64 375.223C462.535 383.596 462.288 392.247 462.288 401.038C462.24 409.83 462.196 418.762 462.148 427.692C462.196 436.623 462.246 445.554 462.291 454.345C462.413 463.138 462.53 471.789 462.647 480.161Z" fill="#774731"/>
<path d="M339.124 783.251C338.932 777.346 338.635 771.835 338.28 767.11C337.624 757.662 336.696 751.363 336.696 751.363C336.696 751.363 335.77 757.662 335.116 767.11C334.761 771.835 334.461 777.346 334.269 783.251C334.197 786.204 334.037 789.254 334.037 792.355C334.004 795.456 333.972 798.604 333.942 801.753C333.975 804.903 334.007 808.053 334.037 811.153C334.047 814.254 334.2 817.304 334.275 820.257C334.471 826.162 334.768 831.673 335.12 836.397C335.775 845.846 336.696 852.145 336.696 852.145C336.696 852.145 337.619 845.846 338.273 836.397C338.628 831.673 338.922 826.162 339.117 820.257C339.189 817.304 339.342 814.254 339.356 811.153C339.389 808.052 339.421 804.903 339.454 801.753C339.421 798.604 339.389 795.455 339.359 792.355C339.359 789.254 339.196 786.204 339.124 783.251Z" fill="#774731"/>
<path d="M223.561 878.81C222.157 867.822 220.526 855.005 218.774 841.27C217.1 827.531 215.464 812.872 213.916 798.207C212.444 783.542 211.074 768.871 210.051 755.11C209.618 748.229 209.017 741.576 208.769 735.268C208.507 728.958 208.069 722.99 208.044 717.482C207.996 711.975 207.701 706.92 207.908 702.447C208.053 697.973 208.013 694.065 208.268 690.857C208.859 684.437 209.197 680.767 209.197 680.767C209.197 680.767 208.683 684.431 207.794 690.842C207.39 694.05 207.245 697.956 206.888 702.433C206.473 706.912 206.53 711.967 206.323 717.483C206.087 723 206.246 728.974 206.214 735.296C206.162 741.619 206.453 748.278 206.566 755.175C206.938 768.962 207.622 783.665 208.408 798.366C209.266 813.064 210.22 827.763 211.246 841.536C212.354 855.309 213.388 868.162 214.274 879.181C215.561 894.075 216.663 905.596 217.241 911.508H228.104C228.084 911.376 228.063 911.238 228.043 911.099C227.191 905.232 225.551 893.722 223.561 878.81Z" fill="#774731"/>
<path d="M214.461 646.283C214.598 649.075 214.841 651.271 214.955 652.767C215.083 654.263 215.152 655.06 215.152 655.06C215.152 655.06 215.29 654.266 215.547 652.776C215.791 651.286 216.226 649.102 216.638 646.32C217.516 640.758 218.734 632.815 219.927 623.281C220.566 618.513 221.223 613.35 221.822 607.888C222.444 602.425 223.157 596.667 223.727 590.707C224.281 584.746 225.065 578.591 225.578 572.333C226.161 566.075 226.754 559.72 227.346 553.363C227.87 547.006 228.397 540.649 228.913 534.39C229.543 528.136 229.862 521.971 230.348 516.01C230.91 510.055 231.233 504.286 231.609 498.82C232.083 493.357 232.395 488.185 232.665 483.409C233.416 473.868 233.741 465.894 234.141 460.317C234.472 454.737 234.532 451.535 234.532 451.535C234.532 451.535 233.514 454.671 231.958 460.184C231.197 462.941 230.179 466.287 229.321 470.142C228.395 473.993 227.344 478.342 226.355 483.094C225.384 487.846 224.35 492.997 223.4 498.453C222.469 503.909 221.488 509.665 220.659 515.625C219.89 521.589 218.921 527.746 218.282 534.013C217.643 540.281 216.992 546.648 216.341 553.014C215.876 559.386 215.41 565.759 214.955 572.031C214.481 578.303 214.316 584.483 214.052 590.459C213.745 596.435 213.714 602.218 213.628 607.698C213.495 613.178 213.58 618.365 213.628 623.149C213.73 632.72 214.104 640.698 214.461 646.283Z" fill="#774731"/>
<path d="M270.291 909.682C270.291 909.682 269.874 895.817 269.6 875.043C269.333 854.266 269.231 826.564 269.697 798.866C269.921 785.016 270.328 771.168 270.801 758.188C271.1 751.698 271.387 745.426 271.662 739.477C272.026 733.53 272.37 727.908 272.685 722.718C273.489 712.342 274.122 703.698 274.822 697.653C275.448 691.608 275.807 688.153 275.807 688.153C275.807 688.153 275.621 691.613 275.298 697.666C274.897 703.716 274.696 712.368 274.409 722.744C274.35 727.934 274.285 733.555 274.223 739.501C274.243 745.448 274.265 751.717 274.292 758.204C274.465 771.178 274.744 785.013 275.214 798.848C276.127 826.517 277.604 854.176 278.903 874.915C280.213 895.657 281.317 909.462 281.317 909.462L270.291 909.682Z" fill="#774731"/>
<path d="M254.649 776.894C254.649 776.894 254.189 761.692 254.422 738.915C254.499 733.221 254.584 727.052 254.668 720.529C254.815 714.006 254.968 707.128 255.125 700.012C255.335 692.898 255.554 685.547 255.776 678.078C256.042 670.609 256.309 663.022 256.58 655.434C256.91 647.849 257.24 640.262 257.562 632.796C257.918 625.329 258.266 617.981 258.605 610.87C259.353 596.649 260.048 583.376 260.647 571.998C261.913 549.23 262.758 534.053 262.758 534.053C262.758 534.053 263.14 537.846 263.805 544.485C264.132 547.806 264.416 551.839 264.668 556.467C264.963 561.094 265.259 566.318 265.399 572.015C265.604 577.712 265.811 583.884 265.831 590.412C265.913 596.939 266.008 603.825 265.888 610.944C265.806 618.063 265.814 625.422 265.547 632.896C265.317 640.37 265.083 647.963 264.845 655.554C264.479 663.144 264.114 670.734 263.754 678.205C263.413 685.678 262.823 693.025 262.392 700.139C261.942 707.252 261.353 714.124 260.819 720.643C260.302 727.161 259.72 733.321 259.151 739.006C256.95 761.752 254.649 776.894 254.649 776.894Z" fill="#774731"/>
<path d="M244.292 419.947C244.292 419.947 244.437 418.992 244.713 417.201C244.956 415.41 245.31 412.783 245.764 409.439C246.156 406.094 246.626 402.033 247.167 397.374C247.627 392.715 248.149 387.46 248.715 381.727C249.157 375.992 249.638 369.779 250.141 363.208C250.525 356.635 250.971 349.707 251.246 342.537C251.391 338.953 251.541 335.308 251.691 331.619C251.768 327.929 251.85 324.194 251.93 320.429C252.257 312.902 252.028 305.252 252.08 297.603C252.129 289.954 251.83 282.305 251.72 274.776C251.413 267.248 251.109 259.839 250.814 252.669C250.362 245.499 249.921 238.57 249.501 231.998C249.165 225.421 248.433 219.216 247.984 213.478C247.739 210.609 247.5 207.858 247.277 205.244C247.103 202.628 246.881 200.147 246.578 197.819C246.072 193.157 245.637 189.094 245.271 185.748C244.649 179.041 244.294 175.209 244.294 175.209C244.294 175.209 245.243 179.003 246.908 185.643C247.689 188.969 248.638 193.008 249.729 197.639C250.876 202.271 251.675 207.525 252.717 213.25C253.692 218.977 254.966 225.178 255.661 231.765C256.455 238.346 257.492 245.283 258.091 252.476C258.597 259.669 259.384 267.101 259.705 274.661C259.902 282.222 260.319 289.903 260.347 297.586C260.197 305.269 260.327 312.953 259.907 320.513C259.663 328.076 259.146 335.513 258.507 342.706C258.035 349.903 257.072 356.845 256.283 363.428C255.442 370.011 254.438 376.225 253.43 381.953C252.41 387.683 251.373 392.926 250.3 397.563C249.342 402.205 248.214 406.233 247.39 409.554C245.578 416.188 244.292 419.947 244.292 419.947Z" fill="#774731"/>
<path d="M249.628 3.32792C249.628 3.32792 249.474 3.6665 249.187 4.30251C248.929 4.9546 248.532 5.96943 248.123 7.28968C247.694 8.60089 247.242 10.2306 246.796 12.1075C246.338 13.9864 245.907 16.1235 245.503 18.4686C245.105 20.8107 244.744 23.3628 244.432 26.0676C244.162 28.7754 243.838 31.633 243.702 34.601C243.475 37.564 243.378 40.6335 243.32 43.7553C243.191 46.8761 243.284 50.0522 243.3 53.2282C243.283 56.4053 243.498 59.5813 243.612 62.7111C243.71 65.8409 243.952 68.9185 244.187 71.8986C244.426 74.8787 244.582 77.7644 244.914 80.4923C245.206 83.2243 245.477 85.8055 245.73 88.1908C246.249 92.9584 246.878 96.9221 247.225 99.7053C247.602 102.484 247.816 104.074 247.816 104.074C247.816 104.074 247.432 102.499 246.756 99.7384C246.104 96.9764 245.046 93.0397 244.014 88.2953C243.505 85.923 242.951 83.3518 242.365 80.633C241.738 77.9151 241.266 75.0365 240.703 72.0624C240.15 69.0873 239.571 66.0117 239.135 62.8769C238.68 59.743 238.122 56.563 237.794 53.3689C237.425 50.1768 236.99 46.9866 236.779 43.8357C236.496 40.6858 236.257 37.5831 236.16 34.5738C235.975 31.5676 235.987 28.6528 235.967 25.8867C235.989 23.1196 236.072 20.5003 236.22 18.0768C236.376 15.6533 236.578 13.4267 236.848 11.4453C237.101 9.46296 237.385 7.73578 237.697 6.29596C237.984 4.85815 238.299 3.72379 238.53 2.91496C238.805 2.09508 238.955 1.65699 238.955 1.65699L249.628 3.32792Z" fill="#774731"/>
<path d="M0 5.34789e-06H488L488 914H0L0 5.34789e-06ZM479.726 4.98161H8.27026L8.27026 909.018H479.726L479.726 4.98161Z" fill="#82572D"/>
</svg>
